<?xml version="1.0" encoding="UTF-8" standalone="no"?>
<!DOCTYPE svg PUBLIC "-//W3C//DTD SVG 1.1//EN" "http://www.w3.org/Graphics/SVG/1.1/DTD/svg11.dtd">
<svg width="100%" height="100%" viewBox="0 0 90 183" version="1.1" xmlns="http://www.w3.org/2000/svg" xmlns:xlink="http://www.w3.org/1999/xlink" xml:space="preserve" xmlns:serif="http://www.serif.com/" style="fill-rule:evenodd;clip-rule:evenodd;stroke-linejoin:round;stroke-miterlimit:2;">
    <g transform="matrix(1,0,0,1,-655.690755,-94.887211)">
        <g id="XMLID_765_">
            <g id="XMLID_762_">
                <g id="XMLID_764_">
                    <g id="XMLID_763_">
                        <path id="XMLID_757_" d="M694.7,174.4C694.5,173.1 694.8,171.8 695.1,170.5C696.1,166.8 697.3,162.8 700.4,160.4C702.4,158.8 705,158 707.6,157.5C710.2,157 712.8,156.8 715.3,155.9C714.4,157.8 713.6,159.7 712.9,161.7C712.5,162.7 712.2,163.8 711.9,164.8C711.1,167.1 710.1,169.4 708.8,171.5C708.2,172.5 707.5,173.5 706.6,174.3C705.8,175 704.9,175.4 703.9,175.8C702.3,176.4 700.5,176.9 698.9,176.3C698.3,176.1 697.8,175.7 697.3,175.5C696.3,175.1 695.5,174.6 694.7,174.4Z" style="fill:rgb(58,110,62);fill-rule:nonzero;"/>
                        <path id="XMLID_758_" d="M682.6,178.7C679,174.3 680,167.2 676,163.2C673.7,160.9 670.2,160.2 667.1,159C664,157.9 660.7,155.8 660.3,152.5C659.7,155.3 660,158.1 660.5,160.9C661.2,164.4 662,168 663.8,171C667.3,177.1 675.7,180.2 682.6,178.7Z" style="fill:rgb(202,202,138);fill-rule:nonzero;"/>
                        <path id="XMLID_760_" d="M721.2,223.7C719.6,216.9 722.1,209.2 727.5,204.7C730.5,202.2 734.2,200.7 737.4,198.6C740.2,196.8 742.7,194.6 744.9,192C744.2,196 743.6,200.1 743,204.1C742.4,207.8 741.7,211.6 740.4,215.2C739.9,216.7 739.2,218.1 738.3,219.4C734.8,224.6 726.9,226.3 721.2,223.7Z" style="fill:rgb(202,202,138);fill-rule:nonzero;"/>
                        <path id="XMLID_761_" d="M678.2,223.3C677.1,220.9 678.4,217.4 678.9,214.9C679.6,210.9 678.3,206.8 676.7,203C675.8,201 674.8,199 673.4,197.3C670.8,194.4 667.1,193 663.7,191.2C660.3,189.4 656.9,186.8 656.1,183C655,187.6 656.4,192.3 657,197C657.4,200.3 657.3,203.6 657.8,206.9C658.2,210.2 659.3,213.5 661.5,215.9C662.6,217.1 664,218 665.4,218.8C669,220.8 673.9,222.9 678.2,223.3Z" style="fill:rgb(58,110,62);fill-rule:nonzero;"/>
                    </g>
                    <path id="XMLID_28_" d="M735,208.4C734.8,208.2 734.5,208.3 734.3,208.5C734.1,208.8 716.4,234.2 693.3,237.1C690.4,223.2 688.5,209.2 688.5,195C688.5,189.6 688.8,184.2 689.2,178.8C695.9,175.1 710.8,160.2 711.4,159.5C711.6,159.3 711.6,159 711.4,158.8C711.2,158.6 710.9,158.6 710.7,158.8C710.5,159 696.1,173.4 689.3,177.6C689.6,174.2 689.9,170.9 690.1,167.6C691.6,150.1 693.2,132 688.9,114.8C688.8,114.5 688.6,114.4 688.3,114.4C688,114.5 687.9,114.7 687.9,115C692.2,132.1 690.6,150.1 689,167.5C688.6,171.6 688.3,175.7 688,179.9C674.8,177.5 663.6,159.6 663.5,159.4C663.4,159.2 663,159.1 662.8,159.2C662.6,159.3 662.5,159.7 662.6,159.9C662.6,159.9 665.6,164.7 670.2,169.6C674.4,174.1 680.8,179.6 687.9,180.9C687.6,185.6 687.4,190.4 687.4,195C687.4,207.4 688.9,219.7 691.1,231.8C670.4,223.1 660.3,192 660.2,191.7C660.1,191.4 659.8,191.3 659.6,191.4C659.3,191.5 659.2,191.8 659.3,192C659.4,192.3 669.9,224.4 691.4,233C694.2,247.7 698.2,262.2 702.1,276.4L701.5,276.1C701.3,276 701,276.1 700.8,276.3C700.7,276.5 700.8,276.8 701,277L702.6,277.8L702.8,277.8C702.9,277.8 703,277.8 703.1,277.7C703.2,277.6 703.3,277.4 703.3,277.2C699.8,264.4 696.2,251.3 693.4,238.1C716.9,235.1 734.8,209.4 735,209.1C735.3,208.9 735.2,208.6 735,208.4Z" style="fill:rgb(132,142,94);fill-rule:nonzero;"/>
                </g>
                <g id="XMLID_746_">
                    <path id="XMLID_609_" d="M685.4,106.5C685.4,106.5 665.2,112.4 664.6,121.7C664.5,123.2 666.9,123.1 669.2,119.8C675.5,110.7 685.4,106.5 685.4,106.5Z" style="fill:rgb(212,139,76);fill-rule:nonzero;"/>
                    <path id="XMLID_616_" d="M685.4,106.5C685.4,106.5 700.6,106.3 707,112.7C712.8,118.5 713.7,113.9 713.2,112.7C712.5,111.5 706.5,104.1 685.4,106.5Z" style="fill:rgb(219,162,77);fill-rule:nonzero;"/>
                    <path id="XMLID_618_" d="M685.4,106.5C685.4,106.5 668.2,114.1 668.2,123.3C668.2,125.4 671,127.4 673.1,123.6C675.7,118.9 679.3,111.6 685.4,106.5Z" style="fill:rgb(219,162,77);fill-rule:nonzero;"/>
                    <path id="XMLID_611_" d="M685.4,106.5C685.4,106.5 672.5,116.1 672.8,127.3C672.8,129 673.9,129.9 675.4,129.9C676.9,129.9 677.9,127.7 678.5,125.2C680.1,118.5 683.3,110.2 685.4,106.5Z" style="fill:rgb(212,139,76);fill-rule:nonzero;"/>
                    <path id="XMLID_619_" d="M685.4,106.5C684.9,107.8 679.3,116.4 679.3,125.7C679.3,129.5 681.1,130.2 683.4,130.2C685.6,130.2 687.8,126.1 687.8,121.7C687.8,115.1 685.4,106.5 685.4,106.5Z" style="fill:rgb(219,162,77);fill-rule:nonzero;"/>
                    <path id="XMLID_621_" d="M685.4,106.5C685.4,106.5 706.9,105.4 710.8,114.6C712.2,117.9 711.3,119.7 710.2,120.2C709.1,120.7 706,120.4 703.2,116.1C700,111.1 695.6,108.4 685.4,106.5Z" style="fill:rgb(212,139,76);fill-rule:nonzero;"/>
                    <path id="XMLID_741_" d="M685.4,106.5C685.4,106.5 702.9,107.3 705.8,120.4C706.5,123.5 705.2,125.4 702.6,125.7C700,126 697.2,124.8 695,118.3C692,109.7 685.4,106.5 685.4,106.5Z" style="fill:rgb(219,162,77);fill-rule:nonzero;"/>
                    <path id="XMLID_743_" d="M685.4,106.5C685.2,106.7 686.2,113.6 687,120.4C687.8,126.9 689.4,129.7 693.2,129.2C697,128.7 696.9,122.5 695.6,118.5C692.6,108.9 685.4,106.5 685.4,106.5Z" style="fill:rgb(212,139,76);fill-rule:nonzero;"/>
                </g>
                <path id="XMLID_744_" d="M681.1,104.9C681.1,105.9 681.4,107 682.2,107.6C682.7,108 683.4,108 684.1,108.1C685.3,108.2 686.4,108.3 687.6,108.1C688.4,108 689.2,107.7 689.7,107.2C690.1,106.7 690.3,106.1 690.3,105.4C690.3,104.8 690.2,104.1 690,103.5C689.6,101.8 689.1,100.1 688.3,98.6C687.8,97.7 687.2,96.8 686.5,96.1C686.1,95.7 685.7,95.4 685.3,95.1C684.7,94.7 684.6,94.9 684.2,95.4C682.9,97.1 682,99.1 681.5,101.2C681.2,102.5 681.1,103.7 681.1,104.9Z" style="fill:rgb(237,211,173);fill-rule:nonzero;"/>
            </g>
            <path id="XMLID_768_" d="M681.9,106.1C681.6,105.9 681.3,105.8 681,105.6C680.8,105.5 680.7,105.7 680.8,105.9C681.1,106.2 681.4,106.4 681.8,106.3C681.9,106.3 681.9,106.2 681.9,106.1Z" style="fill:rgb(212,139,76);fill-rule:nonzero;"/>
            <path id="XMLID_769_" d="M681.4,103.6C681.2,103.3 680.9,103.1 680.7,102.8C680.6,102.7 680.4,102.8 680.5,102.9C680.6,103.3 680.8,103.9 681.3,103.9C681.5,103.9 681.5,103.7 681.4,103.6Z" style="fill:rgb(212,139,76);fill-rule:nonzero;"/>
            <path id="XMLID_770_" d="M681.7,100.8C681.6,100.7 681.5,100.6 681.4,100.4C681.4,100.3 681.3,100.4 681.3,100.4C681.3,100.6 681.4,100.7 681.5,100.9C681.6,101.1 681.8,100.9 681.7,100.8Z" style="fill:rgb(212,139,76);fill-rule:nonzero;"/>
            <path id="XMLID_771_" d="M682.5,99.3C682.3,99.2 682.2,99 682,98.8L681.9,98.8C681.9,99.1 682.1,99.3 682.3,99.5C682.5,99.6 682.7,99.4 682.5,99.3Z" style="fill:rgb(212,139,76);fill-rule:nonzero;"/>
            <path id="XMLID_772_" d="M682.2,100.2C682,100 682.1,100.1 681.8,99.9C681.7,99.9 681.7,99.9 681.7,100C681.8,100.2 681.9,100.3 682.2,100.3L682.2,100.2Z" style="fill:rgb(212,139,76);fill-rule:nonzero;"/>
            <path id="XMLID_774_" d="M686.5,95.3C686.5,95.2 686.3,95.1 686.3,95.3C686.2,95.6 686.1,95.8 686,96.1C686,96.3 686.1,96.4 686.3,96.3C686.5,95.9 686.5,95.7 686.5,95.3Z" style="fill:rgb(212,139,76);fill-rule:nonzero;"/>
            <path id="XMLID_773_" d="M684.4,95.7C684.3,95.5 684.2,95.4 684.1,95.2C684.1,95.1 683.9,95.1 683.9,95.2C683.8,95.5 683.9,95.8 684.2,96C684.3,96.1 684.5,95.9 684.4,95.7Z" style="fill:rgb(212,139,76);fill-rule:nonzero;"/>
            <path id="XMLID_775_" d="M690.3,102.7C690.3,102.6 690.2,102.6 690.2,102.7C690.1,103 689.9,103.1 689.7,103.3C689.4,103.5 689.7,103.9 690,103.7C690.3,103.3 690.4,103 690.3,102.7Z" style="fill:rgb(212,139,76);fill-rule:nonzero;"/>
            <path id="XMLID_776_" d="M690.4,104.3C690.3,104.4 690.1,104.5 690,104.6C689.8,104.8 690,105.2 690.2,105C690.5,104.9 690.5,104.7 690.5,104.4C690.6,104.3 690.5,104.3 690.4,104.3Z" style="fill:rgb(212,139,76);fill-rule:nonzero;"/>
            <path id="XMLID_777_" d="M685.5,106.4C685.4,106.3 685.4,106.3 685.3,106.2L685.2,106.2L685.2,106.5C685.4,106.8 685.7,106.6 685.5,106.4Z" style="fill:rgb(212,139,76);fill-rule:nonzero;"/>
            <path id="XMLID_778_" d="M684,105.8C683.8,105.7 683.7,105.6 683.6,105.4C683.5,105.3 683.3,105.4 683.4,105.5C683.5,105.8 683.6,106 683.9,106.2C684,106.3 684.3,105.9 684,105.8Z" style="fill:rgb(212,139,76);fill-rule:nonzero;"/>
            <path id="XMLID_779_" d="M683.9,106.8C683.8,106.8 683.7,106.8 683.6,106.7C683.5,106.7 683.4,106.8 683.5,106.9C683.6,107 683.6,107 683.8,107C683.9,107 684,106.9 683.9,106.8Z" style="fill:rgb(212,139,76);fill-rule:nonzero;"/>
            <path id="XMLID_780_" d="M688.7,104.6C688.7,104.6 688.6,104.6 688.7,104.6C688.5,104.8 688.4,105 688.3,105.2C688.2,105.3 688.4,105.5 688.5,105.4C688.7,105.1 688.8,104.9 688.7,104.6Z" style="fill:rgb(212,139,76);fill-rule:nonzero;"/>
            <path id="XMLID_781_" d="M689.1,105.9C689.1,105.8 689,105.8 688.9,105.9C688.7,106.1 688.5,106.3 688.4,106.6C688.3,106.8 688.5,107 688.7,106.9C689,106.7 689.3,106.3 689.1,105.9Z" style="fill:rgb(212,139,76);fill-rule:nonzero;"/>
            <path id="XMLID_782_" d="M687.2,101C687.2,100.9 687.1,100.9 687.1,101C687.1,101.2 687,101.5 687,101.7C687,101.7 687.1,101.8 687.1,101.7C687.3,101.5 687.2,101.3 687.2,101Z" style="fill:rgb(212,139,76);fill-rule:nonzero;"/>
            <path id="XMLID_783_" d="M685.8,101.8C685.7,101.7 685.6,101.5 685.5,101.3C685.5,101.2 685.4,101.2 685.4,101.3C685.4,101.6 685.5,101.7 685.8,101.9C685.8,102 685.8,101.9 685.8,101.8Z" style="fill:rgb(212,139,76);fill-rule:nonzero;"/>
            <path id="XMLID_784_" d="M685.9,99.2C685.9,99 685.5,99 685.6,99.2L685.6,99.5C685.6,99.7 685.9,99.6 685.9,99.5L685.9,99.2Z" style="fill:rgb(212,139,76);fill-rule:nonzero;"/>
            <path id="XMLID_785_" d="M685.2,96.3C685.2,96.2 685,96.2 685,96.3C684.9,96.6 684.9,96.8 684.9,97.1C684.9,97.3 685.3,97.4 685.3,97.2C685.4,96.9 685.4,96.6 685.2,96.3Z" style="fill:rgb(212,139,76);fill-rule:nonzero;"/>
            <path id="XMLID_786_" d="M689.2,100.4C689.2,100.6 689,100.8 689,101C688.9,101.2 689.1,101.3 689.2,101.2C689.4,101 689.5,100.8 689.5,100.5C689.4,100.3 689.2,100.3 689.2,100.4Z" style="fill:rgb(212,139,76);fill-rule:nonzero;"/>
            <path id="XMLID_787_" d="M687.7,96.9C687.7,96.9 687.6,96.8 687.6,96.9C687.5,97.2 687.4,97.4 687.3,97.7C687.3,97.8 687.4,97.9 687.5,97.8C687.8,97.7 687.9,97.3 687.7,96.9Z" style="fill:rgb(212,139,76);fill-rule:nonzero;"/>
            <path id="XMLID_788_" d="M684.1,98.4C684,98.2 683.9,98.1 683.9,97.9C683.9,97.8 683.6,97.8 683.6,97.9C683.6,98.2 683.7,98.3 683.9,98.5C683.9,98.7 684.1,98.5 684.1,98.4Z" style="fill:rgb(212,139,76);fill-rule:nonzero;"/>
            <path id="XMLID_789_" d="M683.9,100.7C683.8,100.5 683.5,100.6 683.6,100.8C683.6,101.1 683.7,101.2 683.9,101.4C684,101.5 684.1,101.4 684.1,101.3C684,101 684,101 683.9,100.7Z" style="fill:rgb(212,139,76);fill-rule:nonzero;"/>
            <path id="XMLID_790_" d="M683.2,102.6C683.1,102.5 683,102.6 683,102.7C683.1,103.1 683.2,103.4 683.5,103.6C683.6,103.6 683.7,103.6 683.7,103.5C683.5,103.2 683.3,102.9 683.2,102.6Z" style="fill:rgb(212,139,76);fill-rule:nonzero;"/>
            <path id="XMLID_791_" d="M685.4,103.8C685.4,103.8 685.3,103.8 685.4,103.8C685.3,104 685.3,104.3 685.3,104.5C685.3,104.6 685.4,104.6 685.4,104.5L685.4,103.8Z" style="fill:rgb(212,139,76);fill-rule:nonzero;"/>
            <path id="XMLID_792_" d="M686.5,103.2C686.4,103.1 686.2,103.1 686.2,103.2C686.1,103.4 686,103.6 686,103.9C686,104.2 686.3,104.2 686.5,104C686.7,103.7 686.6,103.4 686.5,103.2Z" style="fill:rgb(212,139,76);fill-rule:nonzero;"/>
            <path id="XMLID_793_" d="M687.4,103.3L687.4,103.7C687.4,103.9 687.8,103.9 687.8,103.7L687.8,103.3C687.9,103 687.4,103 687.4,103.3Z" style="fill:rgb(212,139,76);fill-rule:nonzero;"/>
            <path id="XMLID_794_" d="M688.3,101.9L688.3,102.1C688.3,102.3 688.6,102.4 688.6,102.2C688.6,102.2 688.6,102.1 688.7,102.1C688.9,101.6 688.3,101.5 688.3,101.9Z" style="fill:rgb(212,139,76);fill-rule:nonzero;"/>
        </g>
    </g>
</svg>
