<?xml version="1.0" encoding="UTF-8" standalone="no"?>
<!DOCTYPE svg PUBLIC "-//W3C//DTD SVG 1.1//EN" "http://www.w3.org/Graphics/SVG/1.1/DTD/svg11.dtd">
<svg width="100%" height="100%" viewBox="0 0 329 179" version="1.1" xmlns="http://www.w3.org/2000/svg" xmlns:xlink="http://www.w3.org/1999/xlink" xml:space="preserve" xmlns:serif="http://www.serif.com/" style="fill-rule:evenodd;clip-rule:evenodd;stroke-linejoin:round;stroke-miterlimit:2;">
    <g transform="matrix(1,0,0,1,-1942.560352,-855.256755)">
        <path d="M2267.279,903.326C2265.286,901.508 2255.54,893.099 2246.452,885.192C2246.277,883.155 2245.948,881.381 2245.401,879.914C2245.182,879.323 2244.612,878.907 2243.977,878.907C2242.269,878.885 2240.648,878.819 2239.071,878.754C2234.779,875.009 2231.34,871.987 2230.07,870.804C2225.405,866.49 2210.929,853.24 2210.929,855.518C2210.929,856.613 2209.681,856.942 2208.739,857.796C2207.819,858.65 2210.754,860.774 2208.016,861.629C2206.68,862.045 2206.899,863.403 2205.826,864.06C2205.41,864.301 2203.461,865.067 2203.286,866.141C2203.133,867.105 2204.052,868.397 2203.133,869.01C2201.709,869.974 2200.023,868.331 2199.432,869.667C2199.125,870.368 2201.206,872.689 2204.578,875.865C2200.417,875.58 2195.993,875.383 2191.022,875.383C2185.503,875.383 2175.319,878.055 2171.049,877.748C2166.932,877.463 2156.376,874.266 2152.127,873.543C2135.592,870.74 2116.407,872.251 2089.579,872.93C2071.336,873.39 2062.641,872.536 2045.691,875.339C2042.975,875.777 2030.054,880.31 2020.243,877.003C2018.272,876.346 2013.607,877.419 2011.592,877.55C1988.684,879.258 1975.5,880.375 1958.812,879.017C1958.177,878.973 1957.651,879.455 1957.651,880.09C1957.87,894.938 1956.227,908.517 1955.614,924.11C1955.373,930.089 1955.286,936.966 1955.526,943.952C1955.241,943.448 1954.979,943.076 1954.76,942.813C1954.366,942.331 1953.665,942.397 1953.512,942.66C1953.184,943.186 1953.162,944.105 1953.753,945.419C1954.235,946.47 1955.001,948.485 1955.877,950.785C1956.184,955.296 1956.643,959.742 1957.3,963.925C1956.271,962.852 1955.263,961.976 1954.409,961.472C1951.474,959.72 1950.708,962.874 1954.54,964.998C1955.744,965.677 1956.927,966.684 1958,967.779C1958.044,967.976 1958.088,968.195 1958.109,968.414C1958.416,969.881 1958.876,972.444 1959.401,975.554C1957.561,974.021 1955.196,972.707 1952.48,972.247C1948.866,971.634 1948.428,973.802 1951.1,974.218C1954.823,974.809 1957.648,976.211 1959.794,977.875C1960.626,982.693 1961.59,988.431 1962.488,993.512C1961.349,992.724 1960.495,992.132 1960.079,991.869C1958.48,990.818 1956.575,989.745 1956.29,990.533C1956.005,991.321 1957.1,992.745 1956.597,993.38C1956.093,994.015 1955.743,993.161 1954.254,993.818C1953.049,994.344 1949.808,991.453 1949.414,991.781C1948.998,992.088 1948.823,992.394 1948.669,992.898C1948.538,993.402 1947.99,993.139 1947.837,993.686C1947.684,994.234 1950.728,996.643 1949.742,997.453C1948.756,998.263 1946.72,995.241 1946.325,995.81C1945.931,996.357 1947.595,997.562 1946.807,998.35C1946.019,999.138 1944.486,997.649 1944.091,998C1943.697,998.372 1944.398,998.482 1943.631,999.511C1943.215,1000.08 1942.426,1000.08 1942.58,1000.431C1944.529,1004.811 1955.633,1010.177 1960.648,1013.768C1966.802,1018.17 1987.673,1035.011 1989.557,1033.325C1990.521,1032.471 1989.185,1031.682 1989.798,1030.303C1990.192,1029.405 1991.222,1029.712 1991.922,1029.296C1992.71,1028.836 1993.148,1027.106 1993.302,1026.734C1993.718,1025.727 1994.747,1025.464 1994.945,1024.325C1995.383,1021.96 1997.157,1023.558 1997.726,1022.595C1998.295,1021.632 1998.449,1020.58 1999.259,1020.23C1999.894,1019.967 1998.755,1018.806 1996.894,1017.339C1997.179,1017.251 1997.442,1017.186 1997.682,1017.23C1998.602,1017.383 2000.201,1019.311 2001.142,1019.442C2004.361,1019.946 2007.603,1020.362 2010.931,1020.712C2011.566,1020.778 2013.143,1016.179 2013.778,1016.244C2014.391,1016.31 2013.997,1021.303 2016.099,1022.113C2020.676,1023.887 2021.202,1022.113 2026.962,1022.463C2028.364,1022.551 2029.787,1022.507 2031.211,1022.529C2034.474,1022.595 2035.328,1024.193 2036.949,1024.325C2038.986,1024.5 2042.161,1023.055 2043.979,1022.463C2050.483,1020.273 2060.207,1019.769 2069.208,1021.74C2075.252,1023.054 2126.215,1015.652 2135.632,1014.885C2137.121,1014.754 2138.391,1015.936 2139.53,1015.805C2140.034,1015.739 2142.706,1014.184 2145.268,1014.184C2148.312,1014.184 2149.736,1016.681 2153.831,1016.943C2157.269,1017.162 2158.868,1018.06 2163.708,1017.797C2164.825,1017.731 2167.059,1016.242 2168.176,1016.33C2171.089,1016.571 2172.928,1018.52 2176.038,1018.805C2181.469,1019.331 2183.856,1018.455 2187.448,1018.739C2192.047,1019.089 2196.077,1020.316 2200.632,1020.601C2208.363,1021.105 2205.297,1021.805 2214.451,1021.258C2218.7,1020.995 2223.693,1020.316 2227.854,1020.47C2233.504,1020.689 2238.41,1022.003 2243.776,1022.288C2244.455,1022.332 2245.046,1021.762 2245.046,1021.084C2245.243,1011.273 2247.17,995.833 2247.411,983.722C2247.63,972.29 2247.323,961.143 2246.163,950.587C2244.477,935.257 2244.827,921.876 2245.44,910.794C2250.258,915.393 2254.879,919.795 2259.478,921.219C2260.026,921.394 2259.588,920.343 2260.113,919.752C2261.033,918.657 2261.515,919.533 2261.799,918.986C2262.062,918.438 2259.368,916.599 2259.959,915.482C2260.528,914.387 2262.916,916.424 2263.419,915.832C2263.922,915.24 2259.017,912.941 2259.543,911.561C2260.069,910.181 2264.69,913.861 2265.325,913.62C2265.938,913.379 2265.325,912.7 2265.895,912.459C2266.464,912.218 2266.727,911.933 2266.924,911.364C2267.121,910.795 2267.537,910.97 2267.909,910.203C2268.303,909.437 2266.551,908.67 2267.099,907.947C2267.647,907.224 2270.012,908.473 2270.866,908.013C2271.79,907.641 2269.447,905.297 2267.279,903.326Z" style="fill:rgb(229,201,138);fill-rule:nonzero;"/>
        <g>
            <path d="M2245.137,1021.15C2245.115,1021.829 2244.546,1022.398 2243.845,1022.355C2238.479,1022.07 2233.574,1020.756 2227.923,1020.537C2223.762,1020.384 2218.768,1021.063 2214.52,1021.325C2205.366,1021.872 2208.432,1021.172 2200.701,1020.668C2196.146,1020.361 2192.116,1019.135 2187.517,1018.806C2183.903,1018.543 2181.538,1019.397 2176.107,1018.872C2172.997,1018.587 2171.158,1016.638 2168.245,1016.397C2167.128,1016.309 2164.894,1017.799 2163.777,1017.864C2158.959,1018.105 2157.338,1017.229 2153.9,1017.01C2149.805,1016.747 2148.381,1014.251 2145.337,1014.251C2142.775,1014.251 2140.103,1015.806 2139.599,1015.872C2138.46,1016.003 2137.212,1014.821 2135.701,1014.952C2126.284,1015.719 2075.3,1023.121 2069.277,1021.807C2060.276,1019.836 2050.552,1020.34 2044.048,1022.53C2042.23,1023.143 2039.055,1024.567 2037.018,1024.392C2035.419,1024.261 2034.565,1022.662 2031.28,1022.596C2029.835,1022.574 2028.411,1022.618 2027.031,1022.53C2021.249,1022.18 2020.746,1023.954 2016.168,1022.18C2014.066,1021.37 2014.46,1016.376 2013.847,1016.311C2013.212,1016.245 2011.635,1020.844 2011,1020.779C2007.649,1020.407 2004.43,1019.991 2001.21,1019.509C2000.268,1019.356 1998.67,1017.45 1997.75,1017.297C1996.764,1017.122 1995.231,1018.545 1994.268,1018.37C1979.485,1015.632 1969.126,1011.625 1964.921,1005.799C1963.366,1000.171 1959.38,974.679 1958.088,968.459C1955.285,954.793 1955.088,937.317 1955.613,924.133C1956.226,908.54 1957.847,894.962 1957.65,880.113C1957.65,879.456 1958.154,878.974 1958.811,879.04C1975.499,880.398 1988.683,879.281 2011.591,877.573C2013.628,877.42 2018.271,876.347 2020.242,877.025C2030.053,880.332 2042.997,875.799 2045.69,875.361C2062.641,872.558 2071.335,873.412 2089.578,872.952C2116.406,872.273 2135.591,870.762 2152.126,873.565C2156.375,874.288 2166.931,877.485 2171.048,877.77C2175.319,878.077 2185.502,875.405 2191.021,875.405C2211.126,875.405 2222.339,878.559 2243.976,878.931C2244.611,878.953 2245.18,879.347 2245.4,879.938C2249.254,890.319 2242.356,915.329 2246.232,950.676C2247.393,961.232 2247.721,972.357 2247.48,983.811C2247.261,995.877 2245.312,1011.317 2245.137,1021.15Z" style="fill:rgb(229,201,138);fill-rule:nonzero;"/>
            <g>
                <g>
                    <g>
                        <g>
                            <path d="M1980.449,962.676C1980.23,962.939 1978.018,964.406 1972.236,967.91C1965.25,972.137 1964.593,979.035 1964.33,981.861C1964.33,981.861 1963.739,979.715 1964.549,975.729C1965.491,971.064 1967.33,968.677 1970.966,966.027C1973.506,964.165 1982.135,960.771 1980.449,962.676Z" style="fill:rgb(123,133,70);fill-rule:nonzero;"/>
                        </g>
                        <g>
                            <path d="M1963.52,981.686C1961.286,978.598 1957.541,975.225 1951.124,974.218C1948.452,973.802 1948.89,971.634 1952.504,972.247C1958.527,973.254 1962.885,978.532 1963.476,980.898C1964.045,983.241 1963.629,981.839 1963.52,981.686Z" style="fill:rgb(123,133,70);fill-rule:nonzero;"/>
                        </g>
                        <g>
                            <path d="M1972.017,962.479C1970.221,964.779 1965.096,966.224 1963.717,973.626C1963.717,973.626 1963.235,972.509 1963.608,970.823C1964.374,967.231 1966.214,963.464 1969.565,960.858C1971.798,959.106 1973.813,960.158 1972.017,962.479Z" style="fill:rgb(123,133,70);fill-rule:nonzero;"/>
                        </g>
                        <g>
                            <path d="M1954.409,961.472C1957.256,963.18 1961.921,968.918 1962.622,972.838L1962.885,974.196C1962.885,974.196 1958.921,967.429 1954.541,964.998C1950.686,962.873 1951.475,959.72 1954.409,961.472Z" style="fill:rgb(123,133,70);fill-rule:nonzero;"/>
                        </g>
                        <g>
                            <path d="M1963.454,964.253C1963.366,964.45 1965.556,954.442 1974.777,948.901C1981.96,944.587 1987.37,947.872 1985.749,948.989C1984.128,950.106 1977.558,951.245 1973.857,953.588C1970.156,955.931 1964.462,962.107 1963.454,964.253Z" style="fill:rgb(123,133,70);fill-rule:nonzero;"/>
                        </g>
                        <g>
                            <path d="M1965.447,953.894C1966.498,951.2 1968.272,948.2 1969.696,946.163C1971.426,943.688 1975.324,939.199 1976.639,937.293C1976.814,937.03 1977.208,937.184 1977.186,937.49C1977.055,938.957 1976.792,942.155 1973.791,945.133C1970.331,948.571 1967.024,952.229 1964.987,956.784C1964.856,957.114 1964.9,955.34 1965.447,953.894Z" style="fill:rgb(123,133,70);fill-rule:nonzero;"/>
                        </g>
                        <g>
                            <path d="M1964.243,956.04C1961.878,951.945 1962.557,942.33 1963.849,938.804C1963.937,938.585 1964.178,938.497 1964.331,938.694C1964.638,939.132 1964.988,940.139 1964.813,942.395C1964.616,944.979 1963.696,950.695 1964.244,953.542C1964.527,955.164 1964.243,956.04 1964.243,956.04Z" style="fill:rgb(123,133,70);fill-rule:nonzero;"/>
                        </g>
                        <g>
                            <path d="M1963.958,957.333C1957.738,950.938 1963.63,934.863 1961.33,932.826C1960.366,931.972 1959.688,933.987 1959.14,937.535C1958.264,943.207 1959.162,951.026 1960.914,954.617C1962.14,957.136 1963.476,958.603 1963.958,958.625C1964.133,958.252 1963.958,957.333 1963.958,957.333Z" style="fill:rgb(123,133,70);fill-rule:nonzero;"/>
                        </g>
                        <g>
                            <path d="M1963.432,963.771C1961.461,962.107 1959.183,956.719 1958.176,951.704C1957.125,946.492 1955.614,943.886 1954.759,942.812C1954.365,942.33 1953.664,942.396 1953.511,942.659C1953.183,943.185 1953.161,944.104 1953.752,945.418C1954.475,947.017 1955.898,950.806 1957.256,954.529C1958.154,957.047 1959.84,962.391 1963.147,964.625C1963.366,964.384 1963.432,963.771 1963.432,963.771Z" style="fill:rgb(123,133,70);fill-rule:nonzero;"/>
                        </g>
                        <g>
                            <path d="M1985.749,919.927C1986.647,920.891 1984.829,923.453 1980.602,927.68C1975.784,932.498 1970.046,934.995 1968.71,939.594C1968.71,939.594 1968.754,935.805 1970.177,934.623C1977.01,928.906 1983.449,917.452 1985.749,919.927Z" style="fill:rgb(123,133,70);fill-rule:nonzero;"/>
                        </g>
                        <g>
                            <path d="M1977.558,919.445C1978.456,919.927 1977.733,922.248 1975.653,926.366C1973.638,930.374 1970.704,933.287 1969.981,936.353C1969.85,936.879 1969.543,937.141 1969.434,936.2C1969.346,935.412 1969.346,934.536 1969.697,933.988C1973.309,928.161 1975.258,918.196 1977.558,919.445Z" style="fill:rgb(123,133,70);fill-rule:nonzero;"/>
                        </g>
                        <g>
                            <path d="M1982.026,894.96C1983.274,895.748 1983.099,898.902 1982.223,900.851C1980.186,905.472 1975.85,910.991 1974.996,914.32L1974.799,913.356C1974.799,913.356 1976.31,907.618 1976.989,903.829C1977.427,901.574 1979.551,893.427 1982.026,894.96Z" style="fill:rgb(123,133,70);fill-rule:nonzero;"/>
                        </g>
                        <g>
                            <path d="M1970.418,896.953C1970.549,896.559 1971.097,896.449 1971.425,896.69C1972.257,897.281 1973.79,898.771 1974.535,902.121C1975.718,907.421 1974.995,911.779 1974.732,913.772C1974.469,915.743 1974.25,916.794 1974.25,916.794C1974.25,916.794 1974.075,909.567 1973.199,907.136C1972.39,904.881 1969.345,900.107 1970.418,896.953Z" style="fill:rgb(123,133,70);fill-rule:nonzero;"/>
                        </g>
                        <g>
                            <path d="M1984.325,906.962C1984.413,906.699 1984.15,906.415 1983.865,906.415C1983.164,906.415 1981.719,906.634 1979.989,908.189C1977.23,910.642 1975.894,913.358 1975.259,914.54C1974.624,915.745 1974.317,916.402 1974.317,916.402C1974.317,916.402 1977.295,912.482 1978.741,911.474C1980.098,910.553 1983.668,909.13 1984.325,906.962Z" style="fill:rgb(123,133,70);fill-rule:nonzero;"/>
                        </g>
                        <g>
                            <path d="M1968.842,914.824C1970.287,915.087 1971.295,918.087 1971.229,920.211C1971.054,925.248 1969.608,932.191 1969.784,934.994L1969.258,934.797C1969.258,934.797 1968.251,928.665 1967.484,924.898C1967.046,922.686 1965.995,914.298 1968.842,914.824Z" style="fill:rgb(123,133,70);fill-rule:nonzero;"/>
                        </g>
                        <g>
                            <path d="M1958.811,920.978C1958.789,920.562 1959.249,920.255 1959.665,920.365C1960.672,920.606 1962.644,921.438 1964.571,924.263C1967.637,928.753 1968.579,933.067 1969.061,935.016C1969.105,935.147 1969.127,935.279 1969.17,935.41C1969.586,937.096 1969.411,937.25 1968.929,936.176C1967.965,934.052 1966.323,930.701 1965.184,929.409C1963.586,927.614 1958.986,924.307 1958.811,920.978Z" style="fill:rgb(123,133,70);fill-rule:nonzero;"/>
                        </g>
                    </g>
                    <g>
                        <path d="M1976.879,1011.777C1977.164,1011.667 1977.098,1011.208 1976.879,1010.989C1976.682,1010.792 1957.913,991.06 1965.556,954.749C1967.724,944.5 1969.761,936.747 1971.557,929.892C1973.2,923.672 1974.601,918.285 1975.565,912.985C1975.609,912.678 1975.434,912.394 1975.127,912.35L1975.105,912.35C1974.798,912.306 1974.514,912.503 1974.448,912.81C1973.506,918.066 1972.083,923.432 1970.462,929.63C1968.666,936.485 1966.608,944.26 1964.461,954.531C1960.409,973.803 1963.519,988.739 1967.045,997.521C1970.878,1007.07 1974.579,1010.858 1974.776,1011.055C1974.864,1011.142 1976.025,1012.084 1976.879,1011.777Z" style="fill:rgb(88,97,42);fill-rule:nonzero;"/>
                    </g>
                </g>
                <g>
                    <g>
                        <g>
                            <path d="M1992.91,997.542C1992.779,997.673 1991.443,998.484 1988.004,1000.323C1983.821,1002.557 1983.23,1006.521 1983.011,1008.163C1983.011,1008.163 1982.726,1006.915 1983.318,1004.615C1984.019,1001.943 1985.136,1000.607 1987.326,999.184C1988.859,998.199 1993.939,996.49 1992.91,997.542Z" style="fill:rgb(123,133,70);fill-rule:nonzero;"/>
                        </g>
                        <g>
                            <path d="M1988.026,997.169C1986.909,998.461 1983.909,999.118 1982.879,1003.367C1982.879,1003.367 1982.638,1002.71 1982.901,1001.746C1983.448,999.687 1984.631,997.563 1986.646,996.161C1988.005,995.198 1989.143,995.877 1988.026,997.169Z" style="fill:rgb(123,133,70);fill-rule:nonzero;"/>
                        </g>
                        <g>
                            <path d="M1977.865,996.052C1979.464,997.125 1981.982,1000.585 1982.289,1002.885L1982.398,1003.673C1982.398,1003.673 1980.317,999.621 1977.843,998.088C1975.675,996.753 1976.222,994.957 1977.865,996.052Z" style="fill:rgb(123,133,70);fill-rule:nonzero;"/>
                        </g>
                        <g>
                            <path d="M1983.011,997.936C1982.945,998.045 1984.522,992.308 1990.041,989.395C1994.333,987.117 1997.356,989.176 1996.392,989.767C1995.428,990.358 1991.574,990.818 1989.362,992.067C1987.15,993.293 1983.668,996.731 1983.011,997.936Z" style="fill:rgb(123,133,70);fill-rule:nonzero;"/>
                        </g>
                        <g>
                            <path d="M1984.5,992.001C1985.179,990.468 1986.318,988.782 1987.194,987.643C1988.267,986.263 1990.654,983.789 1991.486,982.715C1991.595,982.584 1991.814,982.671 1991.793,982.846C1991.662,983.678 1991.421,985.54 1989.581,987.16C1987.457,989.043 1985.442,991.058 1984.128,993.642C1984.041,993.841 1984.128,992.811 1984.5,992.001Z" style="fill:rgb(123,133,70);fill-rule:nonzero;"/>
                        </g>
                        <g>
                            <path d="M1983.712,993.205C1982.464,990.752 1983.143,985.211 1984.019,983.218C1984.063,983.087 1984.216,983.065 1984.304,983.174C1984.479,983.437 1984.632,984.028 1984.479,985.342C1984.282,986.831 1983.581,990.116 1983.8,991.781C1983.909,992.702 1983.712,993.205 1983.712,993.205Z" style="fill:rgb(123,133,70);fill-rule:nonzero;"/>
                        </g>
                        <g>
                            <path d="M1983.515,993.95C1980.098,990.074 1984.019,980.919 1982.727,979.671C1982.18,979.145 1981.742,980.284 1981.325,982.321C1980.646,985.584 1980.931,990.139 1981.829,992.264C1982.464,993.753 1983.187,994.651 1983.471,994.673C1983.603,994.476 1983.515,993.95 1983.515,993.95Z" style="fill:rgb(123,133,70);fill-rule:nonzero;"/>
                        </g>
                        <g>
                            <path d="M1983.033,997.651C1981.938,996.622 1980.777,993.424 1980.339,990.511C1979.879,987.467 1979.091,985.912 1978.631,985.255C1978.412,984.97 1978.018,984.97 1977.908,985.124C1977.711,985.431 1977.645,985.956 1977.952,986.745C1978.324,987.687 1979.025,989.921 1979.704,992.132C1980.142,993.621 1980.974,996.753 1982.814,998.155C1982.967,998.002 1983.033,997.651 1983.033,997.651Z" style="fill:rgb(123,133,70);fill-rule:nonzero;"/>
                        </g>
                        <g>
                            <path d="M1997.29,972.948C1997.794,973.539 1996.655,974.963 1994.071,977.284C1991.136,979.934 1987.742,981.204 1986.822,983.81C1986.822,983.81 1986.975,981.62 1987.829,980.985C1991.947,977.875 1996.02,971.436 1997.29,972.948Z" style="fill:rgb(123,133,70);fill-rule:nonzero;"/>
                        </g>
                        <g>
                            <path d="M1992.538,972.422C1993.042,972.729 1992.56,974.043 1991.224,976.386C1989.932,978.642 1988.158,980.24 1987.632,981.993C1987.544,982.3 1987.347,982.431 1987.325,981.884C1987.303,981.424 1987.325,980.92 1987.544,980.614C1989.822,977.328 1991.246,971.612 1992.538,972.422Z" style="fill:rgb(123,133,70);fill-rule:nonzero;"/>
                        </g>
                        <g>
                            <path d="M1995.867,958.362C1996.568,958.844 1996.371,960.661 1995.801,961.778C1994.487,964.384 1991.793,967.45 1991.202,969.356L1991.114,968.787C1991.114,968.787 1992.165,965.502 1992.669,963.334C1993.02,962.063 1994.509,957.398 1995.867,958.362Z" style="fill:rgb(123,133,70);fill-rule:nonzero;"/>
                        </g>
                        <g>
                            <path d="M1989.099,959.172C1989.187,958.953 1989.493,958.909 1989.69,959.063C1990.15,959.435 1991.004,960.355 1991.333,962.304C1991.859,965.414 1991.289,967.911 1991.092,969.049C1990.873,970.188 1990.72,970.779 1990.72,970.779C1990.72,970.779 1990.829,966.596 1990.413,965.151C1989.997,963.815 1988.377,960.968 1989.099,959.172Z" style="fill:rgb(123,133,70);fill-rule:nonzero;"/>
                        </g>
                        <g>
                            <path d="M1996.852,965.392C1996.918,965.239 1996.764,965.063 1996.611,965.063C1996.217,965.041 1995.363,965.129 1994.311,965.961C1992.647,967.297 1991.792,968.83 1991.376,969.487C1990.96,970.166 1990.785,970.538 1990.785,970.538C1990.785,970.538 1992.625,968.37 1993.501,967.822C1994.29,967.341 1996.392,966.618 1996.852,965.392Z" style="fill:rgb(123,133,70);fill-rule:nonzero;"/>
                        </g>
                        <g>
                            <path d="M1987.654,969.487C1988.486,969.684 1988.968,971.436 1988.859,972.684C1988.596,975.597 1987.567,979.583 1987.567,981.203L1987.26,981.072C1987.26,981.072 1986.866,977.48 1986.537,975.29C1986.362,973.977 1986.012,969.093 1987.654,969.487Z" style="fill:rgb(123,133,70);fill-rule:nonzero;"/>
                        </g>
                        <g>
                            <path d="M1981.653,972.729C1981.653,972.488 1981.938,972.335 1982.157,972.401C1982.726,972.576 1983.843,973.102 1984.873,974.81C1986.516,977.504 1986.932,980.044 1987.151,981.161C1987.173,981.249 1987.173,981.314 1987.195,981.402C1987.392,982.388 1987.283,982.475 1987.042,981.84C1986.538,980.592 1985.706,978.577 1985.071,977.81C1984.216,976.714 1981.653,974.656 1981.653,972.729Z" style="fill:rgb(123,133,70);fill-rule:nonzero;"/>
                        </g>
                    </g>
                    <g>
                        <path d="M1989.362,1025.859C1989.537,1025.815 1989.515,1025.531 1989.384,1025.399C1989.275,1025.29 1979.003,1013.288 1984.544,992.483C1986.099,986.614 1987.523,982.19 1988.771,978.27C1989.91,974.722 1990.895,971.634 1991.596,968.59C1991.64,968.415 1991.53,968.24 1991.355,968.196C1991.18,968.152 1991.005,968.262 1990.961,968.437C1990.26,971.459 1989.275,974.525 1988.136,978.051C1986.888,981.971 1985.464,986.417 1983.909,992.286C1980.974,1003.324 1982.31,1012.062 1984.106,1017.274C1986.033,1022.924 1988.07,1025.224 1988.179,1025.355C1988.202,1025.443 1988.859,1026.012 1989.362,1025.859Z" style="fill:rgb(88,97,42);fill-rule:nonzero;"/>
                    </g>
                </g>
            </g>
            <g>
                <path d="M2199.409,869.687C2200,868.329 2201.687,869.994 2203.11,869.03C2204.03,868.417 2203.11,867.103 2203.263,866.161C2203.438,865.088 2205.387,864.321 2205.803,864.08C2206.876,863.445 2206.657,862.065 2207.993,861.649C2210.753,860.817 2207.796,858.671 2208.716,857.816C2209.636,856.962 2210.906,856.633 2210.906,855.538C2210.928,853.26 2225.382,866.488 2230.047,870.824C2234.383,874.854 2263.62,900.039 2267.256,903.346C2269.446,905.317 2271.767,907.66 2270.913,908.12C2270.059,908.58 2267.694,907.332 2267.146,908.054C2266.598,908.777 2268.35,909.543 2267.956,910.31C2267.562,911.077 2267.146,910.901 2266.97,911.471C2266.773,912.04 2266.51,912.325 2265.941,912.566C2265.372,912.807 2265.985,913.486 2265.372,913.727C2264.759,913.968 2260.116,910.289 2259.59,911.668C2259.064,913.047 2263.97,915.347 2263.466,915.939C2262.962,916.53 2260.575,914.472 2260.006,915.589C2259.437,916.684 2262.109,918.524 2261.846,919.093C2261.583,919.64 2261.08,918.764 2260.16,919.859C2259.656,920.472 2260.072,921.502 2259.525,921.326C2252.977,919.289 2246.363,911.208 2239.201,905.098C2230.464,897.566 2198.27,872.315 2199.409,869.687Z" style="fill:rgb(183,132,86);fill-rule:nonzero;"/>
                <path d="M1989.603,1033.327C1990.567,1032.473 1989.231,1031.685 1989.844,1030.305C1990.238,1029.407 1991.267,1029.714 1991.968,1029.298C1992.756,1028.838 1993.194,1027.108 1993.348,1026.736C1993.764,1025.729 1994.793,1025.466 1994.991,1024.327C1995.429,1021.962 1997.203,1023.56 1997.772,1022.597C1998.341,1021.633 1998.495,1020.582 1999.305,1020.232C2000.991,1019.531 1990.216,1012.523 1986.69,1010.311C1983.405,1008.23 1962.775,993.645 1960.081,991.871C1958.482,990.82 1956.577,989.747 1956.292,990.535C1956.007,991.323 1957.102,992.747 1956.599,993.382C1956.095,994.017 1955.745,993.163 1954.256,993.82C1953.051,994.346 1949.81,991.455 1949.416,991.783C1949.022,992.112 1948.825,992.396 1948.671,992.9C1948.54,993.404 1947.992,993.141 1947.839,993.688C1947.686,994.236 1950.73,996.645 1949.744,997.455C1948.758,998.265 1946.722,995.243 1946.327,995.812C1945.933,996.359 1947.597,997.564 1946.809,998.352C1946.021,999.14 1944.488,997.651 1944.093,998.024C1943.699,998.396 1944.4,998.506 1943.633,999.535C1943.217,1000.104 1942.428,1000.104 1942.582,1000.455C1944.531,1004.835 1955.635,1010.201 1960.65,1013.792C1966.849,1018.15 1987.72,1034.991 1989.603,1033.327Z" style="fill:rgb(183,132,86);fill-rule:nonzero;"/>
            </g>
        </g>
    </g>
</svg>
